<?xml version="1.0" encoding="utf-8"?>
<!-- Generator: Adobe Illustrator 21.0.2, SVG Export Plug-In . SVG Version: 6.00 Build 0)  -->
<svg version="1.1" id="图层_1" xmlns="http://www.w3.org/2000/svg" xmlns:xlink="http://www.w3.org/1999/xlink" x="0px" y="0px"
	 width="18px" height="18px" viewBox="0 0 18 18" style="enable-background:new 0 0 18 18;" xml:space="preserve">
<circle style="fill:#E2FBF9;" cx="9.9" cy="10" r="7.7"/>
<g>
	<path style="fill:#07B6AC;" d="M8.5,16.3c-2.1,0-4.1-0.8-5.6-2.2c-0.2-0.2-0.2-0.5,0-0.7c0.2-0.2,0.5-0.2,0.7,0c1.3,1.3,3,2,4.9,2
		c3.9,0,7-3.1,7-7s-3.1-7-7-7c-3.9,0-7,3.1-7,7c0,0.3-0.2,0.5-0.5,0.5S0.5,8.6,0.5,8.3c0-4.4,3.6-8,8-8c4.4,0,8,3.6,8,8
		S13,16.3,8.5,16.3z"/>
</g>
<path style="fill:none;stroke:#07B6AC;stroke-linecap:round;stroke-miterlimit:10;" d="M2,12.1c-0.2-0.3-0.3-0.6-0.4-0.9"/>
<g>
	<path style="fill:none;" d="M2.8,11.8c-1.1-4,1.3-8.1,5.3-9.2s8.1,1.3,9.2,5.3c1.1,4-1.3,8.1-5.3,9.2S3.9,15.8,2.8,11.8z"/>
</g>
<rect x="5.3" y="8.9" style="fill:none;" width="8" height="0.6"/>
<rect x="9.3" y="5.2" style="fill:#FFFFFF;" width="0.6" height="8"/>
<rect x="5.6" y="8.9" style="fill:#FFFFFF;" width="8" height="0.6"/>
<rect x="3.6" y="6.9" style="fill:none;" width="8" height="1"/>
<rect x="9.3" y="5.2" style="fill:#FFFFFF;" width="0.6" height="8"/>
<g>
	<rect x="4.3" y="7" style="fill:#07B6AC;" width="7.7" height="1"/>
</g>
<g>
	<rect x="7.6" y="3.7" style="fill:#07B6AC;" width="1" height="7.6"/>
</g>
</svg>
